<svg aria-hidden="true" style="position:absolute;width:0;height:0" xmlns="http://www.w3.org/2000/svg" overflow="hidden">
<defs>
<symbol id="icon-arrow-left" viewBox="0 0 16 16">
  <path d="M12.667 8H3.333" stroke="#000" stroke-width="1.333" stroke-linecap="round" stroke-linejoin="round"/>
  <path fill="none" d="M8 12.667L3.333 8 8 3.333" stroke="#000" stroke-width="1.333" stroke-linecap="round" stroke-linejoin="round"/>
</symbol>

<symbol id="icon-arrow-right" viewBox="0 0 16 16">
  <path d="M3.333 8h9.334" stroke="#000" stroke-width="1.333" stroke-linecap="round" stroke-linejoin="round"/>
  <path fill="none" d="M8 12.667L12.667 8 8 3.333" stroke="#000" stroke-width="1.333" stroke-linecap="round" stroke-linejoin="round"/>
</symbol>

<symbol id="icon-close" viewBox="0 0 30 30">
  <path d="M8 8l14 14M8 22L22 8"  stroke-width="2"/>
</symbol>

<symbol id="icon-film" viewBox="0 0 24 24">
  <path fill="none" d="M19.82 2H4.18A2.18 2.18 0 002 4.18v15.64A2.18 2.18 0 004.18 22h15.64A2.18 2.18 0 0022 19.82V4.18A2.18 2.18 0 0019.82 2z" stroke="#818181" stroke-width="2" stroke-linecap="round" stroke-linejoin="round"/>
  <path d="M7 2v20M17 2v20M2 12h20M2 7h5M2 17h5M17 17h5M17 7h5" stroke="#818181" stroke-width="2" stroke-linecap="round" stroke-linejoin="round"/>
</symbol>

<symbol id="icon-heart" viewBox="0 0 32 32">
  <path fill="var(--color2, #ff6b08)" d="M16 30.144l-2.24-2.218C5.44 20.639 0 15.728 0 9.708 0 4.797 3.84.995 8.8.995c2.72 0 5.44 1.267 7.2 3.327C17.76 2.263 20.48.995 23.2.995c4.96 0 8.8 3.802 8.8 8.713 0 6.02-5.44 10.931-13.76 18.218L16 30.144z"/>
</symbol>

<symbol id="icon-search" viewBox="0 0 32 32">
  <path fill="none" stroke="var(--color3, #fff)" stroke-linejoin="round" stroke-linecap="round" stroke-width="2.667" d="M14.667 25.333c5.891 0 10.667-4.776 10.667-10.667S20.558 3.999 14.667 3.999 4 8.775 4 14.666s4.776 10.667 10.667 10.667zM28 28.001l-5.8-5.8"/>
</symbol>
</defs>
</svg>