<svg aria-hidden="true" style="position:absolute;width:0;height:0" xmlns="http://www.w3.org/2000/svg" overflow="hidden">
<defs>
<symbol id="icon-arrow-left" viewBox="0 0 16 16">
  <path d="M12.667 8H3.333" stroke="#000" stroke-width="1.333" stroke-linecap="round" stroke-linejoin="round"/>
  <path fill="none" d="M8 12.667L3.333 8 8 3.333" stroke="#000" stroke-width="1.333" stroke-linecap="round" stroke-linejoin="round"/>
</symbol>

<symbol id="icon-arrow-right" viewBox="0 0 16 16">
  <path d="M3.333 8h9.334" stroke="#000" stroke-width="1.333" stroke-linecap="round" stroke-linejoin="round"/>
  <path fill="none" d="M8 12.667L12.667 8 8 3.333" stroke="#000" stroke-width="1.333" stroke-linecap="round" stroke-linejoin="round"/>
</symbol>

<symbol id="icon-close" viewBox="0 0 30 30">
  <path d="M8 8l14 14M8 22L22 8"  stroke-width="2"/>
</symbol>

<symbol id="icon-film" viewBox="0 0 24 24">
  <path fill="none" d="M19.82 2H4.18A2.18 2.18 0 002 4.18v15.64A2.18 2.18 0 004.18 22h15.64A2.18 2.18 0 0022 19.82V4.18A2.18 2.18 0 0019.82 2z" stroke-width="2" stroke-linecap="round" stroke-linejoin="round"/>
  <path d="M7 2v20M17 2v20M2 12h20M2 7h5M2 17h5M17 17h5M17 7h5" stroke-width="2" stroke-linecap="round" stroke-linejoin="round"/>
</symbol>

<symbol id="icon-heart" viewBox="0 0 32 32">
  <path fill="var(--color2, #ff6b08)" d="M16 30.144l-2.24-2.218C5.44 20.639 0 15.728 0 9.708 0 4.797 3.84.995 8.8.995c2.72 0 5.44 1.267 7.2 3.327C17.76 2.263 20.48.995 23.2.995c4.96 0 8.8 3.802 8.8 8.713 0 6.02-5.44 10.931-13.76 18.218L16 30.144z"/>
</symbol>

<symbol id="icon-search" viewBox="0 0 32 32">
  <path fill="none" stroke-linejoin="round" stroke-linecap="round"  d="M14.667 25.333c5.891 0 10.667-4.776 10.667-10.667S20.558 3.999 14.667 3.999 4 8.775 4 14.666s4.776 10.667 10.667 10.667zM28 28.001l-5.8-5.8"/>
</symbol>

<symbol id="github" viewBox="0 0 61 32">
<path d="M29.587 0.919c-5.090 0.274-9.732 3.063-12.363 7.436-2.022 3.357-2.682 7.142-1.935 11.098 0.442 2.337 1.524 4.637 3.124 6.634 1.773 2.21 4.028 3.84 6.654 4.805 0.655 0.244 0.996 0.269 1.244 0.091 0.32-0.229 0.33-0.269 0.31-1.956-0.005-0.838-0.025-1.534-0.036-1.544s-0.188 0.010-0.391 0.041c-0.777 0.127-2.118 0.056-2.89-0.147-0.325-0.091-0.848-0.376-1.143-0.635-0.3-0.264-0.549-0.625-0.747-1.092-0.498-1.158-0.94-1.763-1.636-2.235-0.391-0.269-0.615-0.498-0.66-0.686-0.041-0.168 0-0.218 0.249-0.284 0.589-0.157 1.564 0.218 2.24 0.863 0.137 0.127 0.396 0.462 0.579 0.742 0.736 1.128 1.549 1.651 2.565 1.651 0.437 0 1.27-0.152 1.651-0.3 0.234-0.091 0.239-0.102 0.305-0.391 0.142-0.625 0.381-1.128 0.731-1.554 0.112-0.137 0.188-0.244 0.173-0.244-0.102 0-1.102-0.168-1.529-0.254-1.25-0.254-2.499-0.843-3.398-1.595-1.072-0.899-1.844-2.662-2.037-4.627-0.051-0.523-0.030-1.818 0.030-2.215 0.157-1.031 0.66-2.113 1.356-2.936l0.147-0.178-0.117-0.361c-0.229-0.726-0.269-1.554-0.117-2.438 0.071-0.401 0.345-1.26 0.422-1.305 0.030-0.020 0.198-0.041 0.366-0.041 0.696 0 2.26 0.62 3.429 1.356l0.442 0.274 0.295-0.076c2.27-0.579 4.881-0.579 7.147 0l0.295 0.076 0.493-0.3c0.98-0.594 1.793-0.975 2.58-1.204 0.483-0.142 1.087-0.173 1.178-0.066 0.076 0.096 0.35 0.985 0.411 1.336 0.147 0.874 0.112 1.671-0.117 2.382l-0.117 0.371 0.147 0.173c0.67 0.792 1.163 1.829 1.341 2.839 0.127 0.721 0.086 2.372-0.076 3.23-0.081 0.416-0.3 1.158-0.467 1.585-0.559 1.402-1.417 2.301-2.88 3.032-0.914 0.452-1.727 0.681-3.297 0.914l-0.213 0.036 0.234 0.284c0.284 0.345 0.483 0.762 0.63 1.305 0.107 0.386 0.117 0.533 0.142 3.124 0.030 2.514 0.036 2.728 0.122 2.855 0.259 0.381 0.63 0.406 1.463 0.091 3.073-1.158 5.481-3.058 7.396-5.841 1.666-2.423 2.53-5.115 2.636-8.218 0.157-4.485-1.651-8.767-4.998-11.865-2.25-2.077-5.11-3.444-8.137-3.891-0.584-0.086-2.367-0.224-2.489-0.193-0.015 0-0.345 0.020-0.736 0.046z"/>
</symbol>

</defs>
</svg>